<?xml version="1.0" encoding="UTF-8" standalone="no"?>
<!-- Uploaded to: SVG Repo, www.svgrepo.com, Generator: SVG Repo Mixer Tools -->

<svg
   fill="#000000"
   width="800px"
   height="800px"
   viewBox="0 0 512 512"
   version="1.1"
   id="svg8"
   sodipodi:docname="Logo.svg"
   inkscape:version="1.3.2 (091e20e, 2023-11-25, custom)"
   xmlns:inkscape="http://www.inkscape.org/namespaces/inkscape"
   xmlns:sodipodi="http://sodipodi.sourceforge.net/DTD/sodipodi-0.dtd"
   xmlns="http://www.w3.org/2000/svg"
   xmlns:svg="http://www.w3.org/2000/svg">
  <defs
     id="defs8" />
  <sodipodi:namedview
     id="namedview8"
     pagecolor="#ffffff"
     bordercolor="#000000"
     borderopacity="0.25"
     inkscape:showpageshadow="2"
     inkscape:pageopacity="0.0"
     inkscape:pagecheckerboard="0"
     inkscape:deskcolor="#d1d1d1"
     inkscape:zoom="0.5575"
     inkscape:cx="399.10314"
     inkscape:cy="399.10314"
     inkscape:window-width="1366"
     inkscape:window-height="745"
     inkscape:window-x="-8"
     inkscape:window-y="-8"
     inkscape:window-maximized="1"
     inkscape:current-layer="svg8" />
  <title
     id="title1">ionicons-v5_logos</title>
  <path
     id="path1"
     d="M 315.1 32 A 47.06 47.06 0 0 0 268.04 79.06 L 268.04 196.9 A 47.06 47.06 0 0 0 362.16 196.9 L 362.16 79.06 A 47.06 47.06 0 0 0 315.1 32 z M 194.645 32.05625 A 47.06 47.06 0 0 0 196.9 126.12 L 244 126.12 L 244 79.06 A 47.06 47.06 0 0 0 194.645 32.05625 z M 79.06 149.84 A 47.06 47.06 0 0 0 79.06 243.96 L 196.9 243.96 A 47.06 47.06 0 0 0 196.9 149.84 L 79.06 149.84 z M 439.6625 150.3625 A 47.06 47.06 0 0 0 385.88 196.9 L 385.88 244 L 432.94 244 A 47.06 47.06 0 0 0 439.6625 150.3625 z M 79.06 268 A 47.06 47.06 0 1 0 126.12 315.1 L 126.12 268 L 79.06 268 z M 196.9 268.04 A 47.06 47.06 0 0 0 149.84 315.1 L 149.84 432.94 A 47.06 47.06 0 0 0 243.96 432.94 L 243.96 315.1 A 47.06 47.06 0 0 0 196.9 268.04 z M 315.1 268.04 A 47.06 47.06 0 0 0 315.1 362.16 L 432.94 362.16 A 47.06 47.06 0 1 0 432.94 268.04 L 315.1 268.04 z M 268 385.88 L 268 432.94 A 47.06 47.06 0 1 0 315.1 385.88 L 268 385.88 z "
     style="fill:#f9f9f9" />
</svg>
